# xmcd
#
# Track frame offsets:
#	150
#	17828
#	33470
#	51758
#	67035
#	91353
#	108861
#	126156
#	144606
#	161583
#	180248
#	197766
#
# Disc length: 2836 seconds
#
# Revision: 5
# Processed by: cddbd v1.5.2PL0 Copyright (c) Steve Scherf et al.
# Submitted via: EasyCDDAExtractor 15.3.0.1
#
DISCID=a10b120c
DTITLE=Pandora - En Carne Viva (US Edition)
DYEAR=2002
DGENRE=Latin
TTITLE0=Quiero Dormir Cansada
TTITLE1=Frente A Frente
TTITLE2=Te Propongo Separarnos
TTITLE3=En Carne Viva
TTITLE4=Popurri Emmanuel (Tengo Mucho Que Aprender De Ti, Pobre Diablo, Insopo
TTITLE4=rtablemente Bella)
TTITLE5=Si La Noche De Anoche Volviera (Invitado Especial David Hidalgo De ''L
TTITLE5=os Lobos'')
TTITLE6=Procuro Olvidarte
TTITLE7=Un Toque De Locura
TTITLE8=Todo Se Derrumbo Dentro De Mi (Invitado Especial Emmanuel)
TTITLE9=Se Nos Rompio El Amor
TTITLE10=Popurri Jose Jose (El Amar Y El Querer, Lagrimas, Lo Dudo)
TTITLE11=Que No Se Rompa La Noche
EXTD=
EXTT0=
EXTT1=
EXTT2=
EXTT3=
EXTT4=
EXTT5=
EXTT6=
EXTT7=
EXTT8=
EXTT9=
EXTT10=
EXTT11=
PLAYORDER=
